Coordinates
version=1
nRows=6
nColumns=36
inDegrees=yes

Units are S.I. units (second, meters, Newtons, ...)
If the header above contains a line with 'inDegrees', this indicates whether rotational values are in degrees (yes) or radians (no).

endheader
time	pelvis_tilt	pelvis_list	pelvis_rotation	pelvis_tx	pelvis_ty	pelvis_tz	hip_flexion_r	hip_adduction_r	hip_rotation_r	knee_angle_r	knee_angle_r_beta	ankle_angle_r	subtalar_angle_r	mtp_angle_r	hip_flexion_l	hip_adduction_l	hip_rotation_l	knee_angle_l	knee_angle_l_beta	ankle_angle_l	subtalar_angle_l	mtp_angle_l	lumbar_extension	lumbar_bending	lumbar_rotation	arm_flex_r	arm_add_r	arm_rot_r	elbow_flex_r	pro_sup_r	arm_flex_l	arm_add_l	arm_rot_l	elbow_flex_l	pro_sup_l
      3.76666670	    -13.62129983	     -0.68565720	      7.79349746	      0.92276297	      0.74611099	     -0.01765221	     65.04177963	     -1.67639408	      4.90952187	     79.03472800	      1.37941623	     26.75185993	    -15.50260807	     -7.49999987	     63.28197133	    -15.86765148	     -9.37217303	     78.34122368	      1.36731229	     26.44087189	     -8.25415450	     -7.49999987	    -47.82211675	     -7.35300671	     -1.36060256	     68.06906326	      1.37323114	     15.18345518	    111.49414540	    103.65597680	     74.20241098	     -4.11252353	     21.82094952	    115.08565329	     97.10704612
      3.78333330	    -15.13530636	     -0.90115657	      7.13775734	      0.92188829	      0.73714709	     -0.00955533	     67.42220774	     -1.01394724	      4.76572822	     79.77202267	      1.39228445	     27.18232119	    -14.58213965	     -7.49999987	     65.44983352	    -17.36201389	     -9.47601267	     79.11308217	      1.38078377	     26.60190066	     -6.66774791	     -7.49999987	    -48.90957282	     -8.01013494	     -1.19109295	     69.70656384	      2.00591085	     16.50563584	    113.24731516	    105.59143813	     76.95853045	     -3.95846618	     22.60202186	    116.03486411	     98.23049960
      3.80000000	    -16.90700853	     -1.16336305	      6.87137963	      0.91166262	      0.72865613	     -0.00859446	     70.35961370	     -1.01754213	      4.44205723	     80.58862807	      1.40653690	     27.34822698	    -13.45935474	     -7.49999987	     68.26346140	    -18.16120336	     -9.34234888	     79.95957012	      1.39555777	     26.92260245	     -5.60152647	     -7.49999987	    -49.43068266	     -8.38515776	     -1.18068271	     71.67260389	      2.23571313	     17.36063066	    114.09374612	    105.71346546	     79.72895532	     -3.45387606	     23.53839793	    116.47958443	     98.40953069
      3.81666670	    -17.99376152	     -1.30914944	      6.69805731	      0.90749420	      0.71888134	     -0.00494228	     73.10394298	     -1.14915492	      4.01165757	     82.04320739	      1.43192410	     27.41395834	    -12.94424233	     -7.49999987	     70.73562498	    -18.87693436	     -9.13632411	     81.31116635	      1.41914757	     26.90658652	     -5.15802782	     -7.49999987	    -50.30985517	     -8.57136013	     -1.12590736	     73.69559640	      2.37600454	     17.51701678	    114.74137139	    105.65136029	     82.12406681	     -3.07208904	     23.79331739	    116.84792106	     98.42342849
      3.83333330	    -19.68529498	     -1.74112553	      6.54886244	      0.90298548	      0.70437330	     -0.00254913	     76.65774454	     -1.28597754	      3.33065477	     83.85520239	      1.46354938	     27.92710382	    -11.80400997	     -7.49999987	     74.34029144	    -19.63207613	     -8.43382893	     83.17545843	      1.45168561	     27.62977980	     -4.06235806	     -7.49999987	    -50.05131915	     -8.56446402	     -0.50808388	     75.27986989	      1.61796364	     18.11295010	    116.55177285	    107.14500220	     83.65538193	     -2.87025319	     25.09876488	    117.80325822	    100.65883556
      3.85000000	    -20.90844966	     -2.16617420	      6.63010368	      0.90433071	      0.70042420	      0.00359357	     79.07888137	     -1.31259580	      2.65162256	     85.13253133	      1.48584297	     27.95257964	    -11.18288406	     -7.49999987	     76.83622587	    -20.30115659	     -7.82107996	     84.23828424	      1.47023542	     27.68025247	     -3.20942708	     -7.49999987	    -50.21141036	     -8.41572772	     -0.12583889	     76.30745536	      1.36671314	     18.49466998	    117.46077607	    107.23971753	     84.32975595	     -2.86069079	     25.80746734	    119.15588701	    100.83118496
